<svg xmlns="http://www.w3.org/2000/svg" width="1030" height="860" viewBox="0 0 1030 860">
<style>text{font-family:Arial,sans-serif;fill:#111;} .node{stroke:#333;stroke-width:1.5px;} .edge{stroke:#333;stroke-width:1.2px;fill:none;marker-end:url(#arrow);} .dashed{stroke-dasharray:6,4;}</style>
<defs><marker id="arrow" viewBox="0 0 10 10" refX="10" refY="5" markerWidth="6" markerHeight="6" orient="auto"><path d="M 0 0 L 10 5 L 0 10 z" fill="#333" /></marker></defs>
<path d="M 120.0 200.0 L 280.0 250.0" class="edge" />
<path d="M 320.0 200.0 L 280.0 250.0" class="edge" />
<path d="M 520.0 200.0 L 280.0 250.0" class="edge" />
<path d="M 280.0 330.0 L 280.0 380.0" class="edge" />
<path d="M 280.0 460.0 L 280.0 510.0" class="edge" />
<path d="M 280.0 590.0 L 280.0 640.0" class="edge" />
<path d="M 710.0 460.0 L 280.0 250.0" class="edge dashed" />
<path d="M 710.0 460.0 L 280.0 380.0" class="edge dashed" />
<rect x="200.0" y="20.0" width="600.0" height="40.0" rx="10" ry="10" fill="#FFFFFF" class="node" />
<text x="500.0" y="40.0" text-anchor="middle" dominant-baseline="middle" font-size="14">ElaraMed - Data Science Pipeline</text>
<rect x="50.0" y="120.0" width="140.0" height="80.0" rx="10" ry="10" fill="#FFE6E6" class="node" />
<text x="120.0" y="140.0" text-anchor="middle" dominant-baseline="middle" font-size="14">Orphanet Data</text>
<text x="120.0" y="158.0" text-anchor="middle" dominant-baseline="middle" font-size="14">(Web Scraping)</text>
<rect x="250.0" y="120.0" width="140.0" height="80.0" rx="10" ry="10" fill="#FFE6E6" class="node" />
<text x="320.0" y="140.0" text-anchor="middle" dominant-baseline="middle" font-size="14">WHO Data</text>
<text x="320.0" y="158.0" text-anchor="middle" dominant-baseline="middle" font-size="14">(CSV Files)</text>
<rect x="450.0" y="120.0" width="140.0" height="80.0" rx="10" ry="10" fill="#FFE6E6" class="node" />
<text x="520.0" y="140.0" text-anchor="middle" dominant-baseline="middle" font-size="14">Phenotypes</text>
<text x="520.0" y="158.0" text-anchor="middle" dominant-baseline="middle" font-size="14">(XML Data)</text>
<rect x="200.0" y="250.0" width="160.0" height="80.0" rx="10" ry="10" fill="#E6F3FF" class="node" />
<text x="280.0" y="270.0" text-anchor="middle" dominant-baseline="middle" font-size="14">Data Cleaning</text>
<text x="280.0" y="288.0" text-anchor="middle" dominant-baseline="middle" font-size="14">(cleaning.ipynb)</text>
<rect x="200.0" y="380.0" width="160.0" height="80.0" rx="10" ry="10" fill="#E6FFE6" class="node" />
<text x="280.0" y="400.0" text-anchor="middle" dominant-baseline="middle" font-size="14">Exploratory Data Analysis</text>
<text x="280.0" y="418.0" text-anchor="middle" dominant-baseline="middle" font-size="14">(EDA.ipynb)</text>
<rect x="200.0" y="510.0" width="160.0" height="80.0" rx="10" ry="10" fill="#FFF4E6" class="node" />
<text x="280.0" y="530.0" text-anchor="middle" dominant-baseline="middle" font-size="14">Machine Learning</text>
<text x="280.0" y="548.0" text-anchor="middle" dominant-baseline="middle" font-size="14">(ML.ipynb)</text>
<rect x="200.0" y="640.0" width="160.0" height="80.0" rx="10" ry="10" fill="#F0E6FF" class="node" />
<text x="280.0" y="660.0" text-anchor="middle" dominant-baseline="middle" font-size="14">Results & Figures</text>
<text x="280.0" y="678.0" text-anchor="middle" dominant-baseline="middle" font-size="14">(Figures/)</text>
<rect x="650.0" y="380.0" width="120.0" height="80.0" rx="10" ry="10" fill="#E6E6E6" class="node" />
<ellipse cx="710.0" cy="392.0" rx="60.0" ry="12" fill="#E6E6E6" stroke="#333" stroke-width="1.2" />
<ellipse cx="710.0" cy="448.0" rx="60.0" ry="12" fill="none" stroke="#333" stroke-width="1.2" />
<text x="710.0" y="400.0" text-anchor="middle" dominant-baseline="middle" font-size="14">Data Storage</text>
<text x="710.0" y="418.0" text-anchor="middle" dominant-baseline="middle" font-size="14">(data/)</text>
<rect x="50.0" y="750.0" width="900.0" height="30.0" rx="10" ry="10" fill="#FFFFFF" class="node" />
<text x="500.0" y="770.0" text-anchor="middle" dominant-baseline="middle" font-size="14">📊 Data Sources  |  🔧 Processing  |  📈 Analysis  |  🤖 ML  |  📁 Storage</text>
</svg>